<svg width="84" height="23" viewBox="0 0 84 23" fill="none" xmlns="http://www.w3.org/2000/svg">
<path d="M14.736 4.108V0.483999H0.456V4.108H5.688V17.5H9.48V4.108H14.736ZM22.5045 5.572C22.2645 5.5 21.9045 5.452 21.5445 5.452C20.5845 5.452 19.0725 5.836 18.4485 7.18V5.572H14.9205V17.5H18.5685V12.292C18.5685 9.916 19.8885 9.052 21.3525 9.052C21.7125 9.052 22.0965 9.076 22.5045 9.172V5.572ZM24.0911 14.212C24.0911 16.108 25.6031 17.836 28.2191 17.836C29.8031 17.836 30.9551 17.164 31.5791 16.156C31.5791 16.972 31.6751 17.404 31.6991 17.5H34.9871C34.9631 17.38 34.8431 16.588 34.8431 15.652V9.82C34.8431 7.372 33.4271 5.212 29.5631 5.212C26.0591 5.212 24.4751 7.468 24.3311 9.172L27.4991 9.82C27.5711 8.932 28.2671 8.068 29.5391 8.068C30.6911 8.068 31.2911 8.668 31.2911 9.364C31.2911 9.772 31.0751 10.084 30.4271 10.18L27.6191 10.612C25.6511 10.9 24.0911 12.1 24.0911 14.212ZM29.1071 15.196C28.0991 15.196 27.6911 14.596 27.6911 13.972C27.6911 13.132 28.2671 12.772 29.0351 12.652L31.2911 12.292V12.82C31.2911 14.668 30.1871 15.196 29.1071 15.196ZM49.3206 5.572H45.4806L42.9366 12.988L40.1766 5.572H36.2166L41.1126 17.5H44.7846L49.3206 5.572ZM54.8263 17.5V0.123999H51.1783V17.5H54.8263ZM63.5175 14.5C62.1495 14.5 60.8295 13.516 60.8295 11.524C60.8295 9.508 62.1495 8.572 63.5175 8.572C64.9095 8.572 66.2055 9.508 66.2055 11.524C66.2055 13.54 64.9095 14.5 63.5175 14.5ZM63.5175 5.212C59.9655 5.212 57.1815 7.828 57.1815 11.524C57.1815 15.22 59.9655 17.86 63.5175 17.86C67.0935 17.86 69.8535 15.22 69.8535 11.524C69.8535 7.828 67.0935 5.212 63.5175 5.212ZM71.3618 18.172C71.6978 20.308 73.8818 22.42 77.3138 22.42C81.7778 22.42 83.6978 19.444 83.6978 16.012V5.572H80.2178V6.844C79.8818 6.22 78.8498 5.356 76.9058 5.356C73.6418 5.356 71.3618 8.044 71.3618 11.188C71.3618 14.5 73.7378 16.996 76.9058 16.996C78.6338 16.996 79.6658 16.3 80.0978 15.652V16.204C80.0978 18.364 78.9698 19.252 77.1458 19.252C75.7778 19.252 74.8178 18.412 74.5778 17.26L71.3618 18.172ZM77.5778 13.828C76.1138 13.828 75.0098 12.82 75.0098 11.188C75.0098 9.556 76.2098 8.548 77.5778 8.548C78.9458 8.548 80.1218 9.556 80.1218 11.188C80.1218 12.82 79.0658 13.828 77.5778 13.828Z" fill="#191825"/>
</svg>
